<?xml version="1.0" encoding="utf-8"?>
<!-- Generator: Adobe Illustrator 25.0.0, SVG Export Plug-In . SVG Version: 6.00 Build 0)  -->
<svg version="1.1" id="圖層_1" xmlns="http://www.w3.org/2000/svg" xmlns:xlink="http://www.w3.org/1999/xlink" x="0px" y="0px"
	 viewBox="0 0 96.5 96.5" style="enable-background:new 0 0 96.5 96.5;" xml:space="preserve">
<style type="text/css">
	.st0{fill:#C42D1E;}
</style>
<path class="st0" d="M94.5,32.3c-1.5-4.6-5.5-9.5-6-10.1l-4.3-4.9c-0.6-0.7-1.5-1.2-2.5-1.2c-1,0-1.9,0.3-2.6,1L51.3,45L29.7,23.4
	c-1.4-1.4-3.6-1.4-5,0c-1.4,1.4-1.4,3.6,0,5l21.6,21.6L26.5,69.7c-1.4,1.4-1.4,3.6,0,4.9c1.4,1.4,3.6,1.4,5,0l19.8-19.8l20.6,20.6
	c0.7,0.7,1.6,1,2.5,1c0.9,0,1.8-0.3,2.5-1c1.4-1.4,1.4-3.6,0-4.9L56.2,49.9l25.2-25.2l1.7,2c1,1.2,3.8,4.9,4.7,7.8
	c1.1,3.3,1.7,8.2,1.7,13.8C89.5,71,71,89.5,48.3,89.5S7,71,7,48.3S25.5,7,48.3,7c5.6,0,11,1.1,16.1,3.2c1.8,0.8,3.8-0.1,4.6-1.9
	c0.8-1.8-0.1-3.8-1.9-4.6C61.1,1.3,54.8,0,48.3,0C21.7,0,0,21.7,0,48.3c0,26.6,21.7,48.3,48.3,48.3s48.3-21.7,48.3-48.3
	C96.5,41.9,95.8,36.4,94.5,32.3z"/>
</svg>
