<?xml version="1.0" encoding="utf-8"?>
<!-- Generator: Adobe Illustrator 25.2.3, SVG Export Plug-In . SVG Version: 6.00 Build 0)  -->
<svg version="1.1" id="圖層_1" xmlns="http://www.w3.org/2000/svg" xmlns:xlink="http://www.w3.org/1999/xlink" x="0px" y="0px"
	 viewBox="0 0 98.5 98.5" style="enable-background:new 0 0 98.5 98.5;" xml:space="preserve">
<g>
	<path d="M49.3,98.5C22.1,98.5,0,76.4,0,49.3S22.1,0,49.3,0c6.6,0,13.1,1.3,19.2,3.9c2.3,1,3.4,3.6,2.4,5.9s-3.6,3.4-5.9,2.4
		C60,10.1,54.7,9,49.3,9C27.1,9,9,27.1,9,49.3s18.1,40.3,40.3,40.3s40.3-18.1,40.3-40.3c0-5.4-0.6-10.2-1.7-13.4
		c-0.4-1.1-0.8-2.1-1.3-3l-36.9,44c-0.8,1-2,1.5-3.2,1.6s-2.5-0.4-3.4-1.2L17.5,52.8c-1.8-1.7-1.9-4.6-0.1-6.4
		c1.7-1.8,4.6-1.9,6.4-0.1l22.1,21.1l37.5-44.8c0.8-1,2-1.6,3.3-1.6c1.3-0.1,2.5,0.4,3.4,1.3c0.4,0.5,4.4,4.6,6.4,10.6
		c1.4,4.2,2.1,9.8,2.1,16.3C98.5,76.4,76.4,98.5,49.3,98.5z"/>
</g>
</svg>
