<?xml version="1.0" encoding="utf-8"?>
<!-- Generator: Adobe Illustrator 25.0.0, SVG Export Plug-In . SVG Version: 6.00 Build 0)  -->
<svg version="1.1" id="圖層_1" xmlns="http://www.w3.org/2000/svg" xmlns:xlink="http://www.w3.org/1999/xlink" x="0px" y="0px"
	 viewBox="0 0 96.5 96.5" style="enable-background:new 0 0 96.5 96.5;" xml:space="preserve">
<style type="text/css">
	.st0{fill:#BA6D21;}
</style>
<g>
	<path class="st0" d="M48.3,96.5c-12.7,0-24.8-4.9-33.8-13.9c-9.2-9-14.3-21.1-14.4-34c-0.1-12.9,4.8-25.1,13.9-34.2
		C22.9,5.2,35,0.1,47.9,0c6.4-0.1,11.9,0.6,16,2c4.7,1.5,9.5,5.4,10.1,5.9l5,4.3c0.7,0.6,1.2,1.5,1.2,2.5s-0.3,1.9-1,2.6L27,70.2
		c-1.4,1.4-3.6,1.4-4.9,0c-1.4-1.4-1.4-3.6,0-4.9L71.5,15l-2.1-1.8c-1.1-0.9-4.9-3.7-7.7-4.6C58.4,7.5,53.5,6.9,47.9,7
		c-11,0.1-21.4,4.5-29.1,12.3C11.1,27.2,6.9,37.6,7,48.6c0.1,11,4.5,21.4,12.3,29.1c7.8,7.7,18,11.9,28.9,11.9c0.1,0,0.2,0,0.3,0
		c11-0.1,21.4-4.5,29.1-12.3c7.7-7.9,11.9-18.3,11.9-29.3c0-5.6-1.2-11-3.4-16c-0.8-1.8,0-3.8,1.8-4.6c1.8-0.8,3.8,0,4.6,1.8
		c2.6,5.9,3.9,12.2,3.9,18.8c0.1,12.9-4.8,25.1-13.9,34.2s-21.1,14.3-34,14.4C48.5,96.5,48.4,96.5,48.3,96.5z"/>
</g>
</svg>
