<?xml version="1.0" encoding="utf-8"?>
<!-- Generator: Adobe Illustrator 25.2.3, SVG Export Plug-In . SVG Version: 6.00 Build 0)  -->
<svg version="1.1" id="圖層_1" xmlns="http://www.w3.org/2000/svg" xmlns:xlink="http://www.w3.org/1999/xlink" x="0px" y="0px"
	 viewBox="0 0 96.5 96.5" style="enable-background:new 0 0 96.5 96.5;" xml:space="preserve">
<style type="text/css">
	.st0{fill:#FA644B;}
</style>
<g>
	<path class="st0" d="M81.6,82.2c-9,8.8-21,13.7-33.6,13.6c-12.7,0-24.8-5-33.8-14.1s-14-21-13.9-33.8c-0.1-12.7,5-24.8,14-33.7
		c4.5-4.5,8.8-7.9,12.7-9.7c4.3-2.2,8.4-2.6,11.2-2.8c2.3-0.2,5.9-0.1,5.9-0.1l3.6,0.3c0.9-0.1,1.9,0.2,2.6,0.9
		c0.7,0.7,1.1,1.6,1.1,2.6l-0.1,13.4c0,2-1.6,3.5-3.5,3.4c-2,0-3.5-1.6-3.4-3.5l-0.3-7.6c0-1.2-0.8-2.1-1.9-2.4l-3.6-0.1
		c-1.4,0.1-6.1,0.8-8.6,2.1c-3.1,1.5-7,4.5-10.8,8.5c-7.8,7.7-12,18-12.1,28.8c0,10.9,4.3,21.2,12,28.9S37.2,89,48,89
		s21-4.1,28.7-11.6c0.1-0.1,0.1-0.1,0.2-0.2c7.8-7.8,12-18.1,12-28.9c0-10.9-4.3-21.2-11.9-29c-3.9-4-8.5-7-13.5-8.9
		c-1.8-0.7-2.7-2.7-1.9-4.5c0.7-1.8,2.7-2.7,4.5-1.9c6,2.4,11.2,6,15.8,10.6c9,9,14,21.1,13.9,33.9S90.9,73.2,81.6,82.2
		C81.7,82.1,81.6,82.1,81.6,82.2z"/>
</g>
<path class="st0" d="M49,82h-2.3c-3,0-5.5-2.5-5.5-5.5V34.9c0-3,2.5-5.5,5.5-5.5H49c3,0,5.5,2.5,5.5,5.5v41.6C54.5,79.5,52,82,49,82
	z"/>
<circle class="st0" cx="47.8" cy="16.4" r="7.9"/>
</svg>
